<?xml version="1.0" encoding="UTF-8" standalone="no"?>
<!DOCTYPE svg PUBLIC "-//W3C//DTD SVG 1.1//EN"
 "http://www.w3.org/Graphics/SVG/1.1/DTD/svg11.dtd">
<!-- Generated by graphviz version 2.40.1 (20161225.0304)
 -->
<!-- Title: %0 Pages: 1 -->
<svg width="1355pt" height="1956pt"
 viewBox="0.00 0.00 1355.37 1955.80" xmlns="http://www.w3.org/2000/svg" xmlns:xlink="http://www.w3.org/1999/xlink">
<g id="graph0" class="graph" transform="scale(1 1) rotate(0) translate(144 1811.8)">
<title>%0</title>
<polygon fill="#ffffff" stroke="transparent" points="-144,144 -144,-1811.8 1211.3706,-1811.8 1211.3706,144 -144,144"/>
<!-- bankaccountdetails -->
<g id="node1" class="node">
<title>bankaccountdetails</title>
<polygon fill="#4477c9" stroke="transparent" points="316.0864,-1057 316.0864,-1235 417.0864,-1235 417.0864,-1057 316.0864,-1057"/>
<polygon fill="#add8e6" stroke="transparent" points="316.5864,-1217 316.5864,-1235 417.5864,-1235 417.5864,-1217 316.5864,-1217"/>
<polygon fill="none" stroke="#000000" points="316.5864,-1217 316.5864,-1235 417.5864,-1235 417.5864,-1217 316.5864,-1217"/>
<text text-anchor="start" x="330.3489" y="-1223.9" font-family="Times,serif" font-weight="bold" font-style="italic" font-size="9.00" fill="#000000"> bankaccountdetails </text>
<polygon fill="none" stroke="#000000" points="316.5864,-1197 316.5864,-1217 417.5864,-1217 417.5864,-1197 316.5864,-1197"/>
<text text-anchor="start" x="321.5864" y="-1203.9" font-family="Times,serif" font-size="9.00" fill="#000000">bankName: String</text>
<polygon fill="none" stroke="#000000" points="316.5864,-1177 316.5864,-1197 417.5864,-1197 417.5864,-1177 316.5864,-1177"/>
<text text-anchor="start" x="321.5864" y="-1183.9" font-family="Times,serif" font-size="9.00" fill="#000000">accountTitle: String</text>
<polygon fill="none" stroke="#000000" points="316.5864,-1157 316.5864,-1177 417.5864,-1177 417.5864,-1157 316.5864,-1157"/>
<text text-anchor="start" x="321.2283" y="-1163.9" font-family="Times,serif" font-size="9.00" fill="#000000">accountNumber: Number</text>
<polygon fill="none" stroke="#000000" points="316.5864,-1137 316.5864,-1157 417.5864,-1157 417.5864,-1137 316.5864,-1137"/>
<text text-anchor="start" x="321.5864" y="-1143.9" font-family="Times,serif" font-size="9.00" fill="#000000">user: ObjectID</text>
<polygon fill="none" stroke="#000000" points="316.5864,-1117 316.5864,-1137 417.5864,-1137 417.5864,-1117 316.5864,-1117"/>
<text text-anchor="start" x="321.5864" y="-1123.9" font-family="Times,serif" font-size="9.00" fill="#000000">_id: ObjectID</text>
<polygon fill="none" stroke="#000000" points="316.5864,-1097 316.5864,-1117 417.5864,-1117 417.5864,-1097 316.5864,-1097"/>
<text text-anchor="start" x="321.5864" y="-1103.9" font-family="Times,serif" font-size="9.00" fill="#000000">updatedAt: Date</text>
<polygon fill="none" stroke="#000000" points="316.5864,-1077 316.5864,-1097 417.5864,-1097 417.5864,-1077 316.5864,-1077"/>
<text text-anchor="start" x="321.5864" y="-1083.9" font-family="Times,serif" font-size="9.00" fill="#000000">createdAt: Date</text>
<polygon fill="none" stroke="#000000" points="316.5864,-1057 316.5864,-1077 417.5864,-1077 417.5864,-1057 316.5864,-1057"/>
<text text-anchor="start" x="321.5864" y="-1063.9" font-family="Times,serif" font-size="9.00" fill="#000000">__v: Number</text>
</g>
<!-- charitypools -->
<g id="node2" class="node">
<title>charitypools</title>
<polygon fill="#4477c9" stroke="transparent" points="671.0634,-1141 671.0634,-1459 772.0634,-1459 772.0634,-1141 671.0634,-1141"/>
<polygon fill="#add8e6" stroke="transparent" points="671.5634,-1441 671.5634,-1459 772.5634,-1459 772.5634,-1441 671.5634,-1441"/>
<polygon fill="none" stroke="#000000" points="671.5634,-1441 671.5634,-1459 772.5634,-1459 772.5634,-1441 671.5634,-1441"/>
<text text-anchor="start" x="697.5686" y="-1447.9" font-family="Times,serif" font-weight="bold" font-style="italic" font-size="9.00" fill="#000000"> charitypools </text>
<polygon fill="none" stroke="#000000" points="671.5634,-1421 671.5634,-1441 772.5634,-1441 772.5634,-1421 671.5634,-1421"/>
<text text-anchor="start" x="676.5634" y="-1427.9" font-family="Times,serif" font-size="9.00" fill="#000000">description: String</text>
<polygon fill="none" stroke="#000000" points="671.5634,-1401 671.5634,-1421 772.5634,-1421 772.5634,-1401 671.5634,-1401"/>
<text text-anchor="start" x="676.2003" y="-1407.9" font-family="Times,serif" font-size="9.00" fill="#000000">moneyRequired: Number</text>
<polygon fill="none" stroke="#000000" points="671.5634,-1381 671.5634,-1401 772.5634,-1401 772.5634,-1381 671.5634,-1381"/>
<text text-anchor="start" x="676.5634" y="-1387.9" font-family="Times,serif" font-size="9.00" fill="#000000">isApproved: Boolean</text>
<polygon fill="none" stroke="#000000" points="671.5634,-1361 671.5634,-1381 772.5634,-1381 772.5634,-1361 671.5634,-1361"/>
<text text-anchor="start" x="676.5634" y="-1367.9" font-family="Times,serif" font-size="9.00" fill="#000000">isRejected: Boolean</text>
<polygon fill="none" stroke="#000000" points="671.5634,-1341 671.5634,-1361 772.5634,-1361 772.5634,-1341 671.5634,-1341"/>
<text text-anchor="start" x="676.5634" y="-1347.9" font-family="Times,serif" font-size="9.00" fill="#000000">isCompleted: Boolean</text>
<polygon fill="none" stroke="#000000" points="671.5634,-1321 671.5634,-1341 772.5634,-1341 772.5634,-1321 671.5634,-1321"/>
<text text-anchor="start" x="676.5634" y="-1327.9" font-family="Times,serif" font-size="9.00" fill="#000000">approvedBy: ObjectID</text>
<polygon fill="none" stroke="#000000" points="671.5634,-1301 671.5634,-1321 772.5634,-1321 772.5634,-1301 671.5634,-1301"/>
<text text-anchor="start" x="676.5634" y="-1307.9" font-family="Times,serif" font-size="9.00" fill="#000000">rejectedBy: ObjectID</text>
<polygon fill="none" stroke="#000000" points="671.5634,-1281 671.5634,-1301 772.5634,-1301 772.5634,-1281 671.5634,-1281"/>
<text text-anchor="start" x="676.5634" y="-1287.9" font-family="Times,serif" font-size="9.00" fill="#000000">bankAccount: ObjectID</text>
<polygon fill="none" stroke="#000000" points="671.5634,-1261 671.5634,-1281 772.5634,-1281 772.5634,-1261 671.5634,-1261"/>
<text text-anchor="start" x="676.5634" y="-1267.9" font-family="Times,serif" font-size="9.00" fill="#000000">user: ObjectID</text>
<polygon fill="none" stroke="#000000" points="671.5634,-1241 671.5634,-1261 772.5634,-1261 772.5634,-1241 671.5634,-1241"/>
<text text-anchor="start" x="676.5634" y="-1247.9" font-family="Times,serif" font-size="9.00" fill="#000000">publicPictures: Array</text>
<polygon fill="none" stroke="#000000" points="671.5634,-1221 671.5634,-1241 772.5634,-1241 772.5634,-1221 671.5634,-1221"/>
<text text-anchor="start" x="676.5634" y="-1227.9" font-family="Times,serif" font-size="9.00" fill="#000000">privatePictures: Array</text>
<polygon fill="none" stroke="#000000" points="671.5634,-1201 671.5634,-1221 772.5634,-1221 772.5634,-1201 671.5634,-1201"/>
<text text-anchor="start" x="676.5634" y="-1207.9" font-family="Times,serif" font-size="9.00" fill="#000000">_id: ObjectID</text>
<polygon fill="none" stroke="#000000" points="671.5634,-1181 671.5634,-1201 772.5634,-1201 772.5634,-1181 671.5634,-1181"/>
<text text-anchor="start" x="676.5634" y="-1187.9" font-family="Times,serif" font-size="9.00" fill="#000000">updatedAt: Date</text>
<polygon fill="none" stroke="#000000" points="671.5634,-1161 671.5634,-1181 772.5634,-1181 772.5634,-1161 671.5634,-1161"/>
<text text-anchor="start" x="676.5634" y="-1167.9" font-family="Times,serif" font-size="9.00" fill="#000000">createdAt: Date</text>
<polygon fill="none" stroke="#000000" points="671.5634,-1141 671.5634,-1161 772.5634,-1161 772.5634,-1141 671.5634,-1141"/>
<text text-anchor="start" x="676.5634" y="-1147.9" font-family="Times,serif" font-size="9.00" fill="#000000">__v: Number</text>
</g>
<!-- bankaccountdetails&#45;&gt;charitypools -->
<g id="edge5" class="edge">
<title>bankaccountdetails:4&#45;&gt;charitypools:7</title>
<path fill="none" stroke="#000000" stroke-dasharray="5,2" d="M417.5864,-1127C551.953,-1127 537.1968,-1291 671.5634,-1291"/>
<text text-anchor="middle" x="544.4827" y="-1288.2" font-family="Times,serif" font-size="14.00" fill="#000000">bankaccountdetails&#45;charitypools</text>
<text text-anchor="middle" x="666.5101" y="-1295.2" font-family="Times,serif" font-size="14.00" fill="#000000">N</text>
<text text-anchor="middle" x="421.0864" y="-1114.4" font-family="Times,serif" font-size="14.00" fill="#000000">1</text>
</g>
<!-- donations -->
<g id="node3" class="node">
<title>donations</title>
<polygon fill="#4477c9" stroke="transparent" points="972.3706,-1121 972.3706,-1379 1067.3706,-1379 1067.3706,-1121 972.3706,-1121"/>
<polygon fill="#add8e6" stroke="transparent" points="972.8706,-1361 972.8706,-1379 1067.8706,-1379 1067.8706,-1361 972.8706,-1361"/>
<polygon fill="none" stroke="#000000" points="972.8706,-1361 972.8706,-1379 1067.8706,-1379 1067.8706,-1361 972.8706,-1361"/>
<text text-anchor="start" x="1000.6219" y="-1367.9" font-family="Times,serif" font-weight="bold" font-style="italic" font-size="9.00" fill="#000000"> donations </text>
<polygon fill="none" stroke="#000000" points="972.8706,-1341 972.8706,-1361 1067.8706,-1361 1067.8706,-1341 972.8706,-1341"/>
<text text-anchor="start" x="977.8706" y="-1347.9" font-family="Times,serif" font-size="9.00" fill="#000000">moneyDonated: String</text>
<polygon fill="none" stroke="#000000" points="972.8706,-1321 972.8706,-1341 1067.8706,-1341 1067.8706,-1321 972.8706,-1321"/>
<text text-anchor="start" x="977.5" y="-1327.9" font-family="Times,serif" font-size="9.00" fill="#000000">paymentMethod: String</text>
<polygon fill="none" stroke="#000000" points="972.8706,-1301 972.8706,-1321 1067.8706,-1321 1067.8706,-1301 972.8706,-1301"/>
<text text-anchor="start" x="977.8706" y="-1307.9" font-family="Times,serif" font-size="9.00" fill="#000000">createdAt: String</text>
<polygon fill="none" stroke="#000000" points="972.8706,-1281 972.8706,-1301 1067.8706,-1301 1067.8706,-1281 972.8706,-1281"/>
<text text-anchor="start" x="977.8706" y="-1287.9" font-family="Times,serif" font-size="9.00" fill="#000000">isDeleted: Boolean</text>
<polygon fill="none" stroke="#000000" points="972.8706,-1261 972.8706,-1281 1067.8706,-1281 1067.8706,-1261 972.8706,-1261"/>
<text text-anchor="start" x="977.8706" y="-1267.9" font-family="Times,serif" font-size="9.00" fill="#000000">prove: Array</text>
<polygon fill="none" stroke="#000000" points="972.8706,-1241 972.8706,-1261 1067.8706,-1261 1067.8706,-1241 972.8706,-1241"/>
<text text-anchor="start" x="977.8706" y="-1247.9" font-family="Times,serif" font-size="9.00" fill="#000000">verified: Boolean</text>
<polygon fill="none" stroke="#000000" points="972.8706,-1221 972.8706,-1241 1067.8706,-1241 1067.8706,-1221 972.8706,-1221"/>
<text text-anchor="start" x="977.8706" y="-1227.9" font-family="Times,serif" font-size="9.00" fill="#000000">user: ObjectID</text>
<polygon fill="none" stroke="#000000" points="972.8706,-1201 972.8706,-1221 1067.8706,-1221 1067.8706,-1201 972.8706,-1201"/>
<text text-anchor="start" x="977.8706" y="-1207.9" font-family="Times,serif" font-size="9.00" fill="#000000">charityPool: ObjectID</text>
<polygon fill="none" stroke="#000000" points="972.8706,-1181 972.8706,-1201 1067.8706,-1201 1067.8706,-1181 972.8706,-1181"/>
<text text-anchor="start" x="977.8706" y="-1187.9" font-family="Times,serif" font-size="9.00" fill="#000000">donationFor: ObjectID</text>
<polygon fill="none" stroke="#000000" points="972.8706,-1161 972.8706,-1181 1067.8706,-1181 1067.8706,-1161 972.8706,-1161"/>
<text text-anchor="start" x="977.8706" y="-1167.9" font-family="Times,serif" font-size="9.00" fill="#000000">_id: ObjectID</text>
<polygon fill="none" stroke="#000000" points="972.8706,-1141 972.8706,-1161 1067.8706,-1161 1067.8706,-1141 972.8706,-1141"/>
<text text-anchor="start" x="977.8706" y="-1147.9" font-family="Times,serif" font-size="9.00" fill="#000000">updatedAt: Date</text>
<polygon fill="none" stroke="#000000" points="972.8706,-1121 972.8706,-1141 1067.8706,-1141 1067.8706,-1121 972.8706,-1121"/>
<text text-anchor="start" x="977.8706" y="-1127.9" font-family="Times,serif" font-size="9.00" fill="#000000">__v: Number</text>
</g>
<!-- charitypools&#45;&gt;donations -->
<g id="edge8" class="edge">
<title>charitypools:11&#45;&gt;donations:7</title>
<path fill="none" stroke="#000000" stroke-dasharray="5,2" d="M772.0634,-1211C861.311,-1211 883.623,-1211 972.8706,-1211"/>
<text text-anchor="middle" x="872.217" y="-1215.2" font-family="Times,serif" font-size="14.00" fill="#000000">charitypools&#45;donations</text>
<text text-anchor="middle" x="967.8173" y="-1215.2" font-family="Times,serif" font-size="14.00" fill="#000000">N</text>
<text text-anchor="middle" x="775.5634" y="-1198.4" font-family="Times,serif" font-size="14.00" fill="#000000">1</text>
</g>
<!-- locations -->
<g id="node4" class="node">
<title>locations</title>
<polygon fill="#4477c9" stroke="transparent" points="0,-40 0,-258 94,-258 94,-40 0,-40"/>
<polygon fill="#add8e6" stroke="transparent" points="0,-240 0,-258 94,-258 94,-240 0,-240"/>
<polygon fill="none" stroke="#000000" points="0,-240 0,-258 94,-258 94,-240 0,-240"/>
<text text-anchor="start" x="28.5032" y="-246.9" font-family="Times,serif" font-weight="bold" font-style="italic" font-size="9.00" fill="#000000"> locations </text>
<polygon fill="none" stroke="#000000" points="0,-220 0,-240 94,-240 94,-220 0,-220"/>
<text text-anchor="start" x="4.6379" y="-226.9" font-family="Times,serif" font-size="9.00" fill="#000000">coordinates: Embedded</text>
<polygon fill="none" stroke="#000000" points="0,-200 0,-220 94,-220 94,-200 0,-200"/>
<text text-anchor="start" x="5" y="-206.9" font-family="Times,serif" font-size="9.00" fill="#000000">city: String</text>
<polygon fill="none" stroke="#000000" points="0,-180 0,-200 94,-200 94,-180 0,-180"/>
<text text-anchor="start" x="5" y="-186.9" font-family="Times,serif" font-size="9.00" fill="#000000">country: String</text>
<polygon fill="none" stroke="#000000" points="0,-160 0,-180 94,-180 94,-160 0,-160"/>
<text text-anchor="start" x="5" y="-166.9" font-family="Times,serif" font-size="9.00" fill="#000000">postalCode: Number</text>
<polygon fill="none" stroke="#000000" points="0,-140 0,-160 94,-160 94,-140 0,-140"/>
<text text-anchor="start" x="5" y="-146.9" font-family="Times,serif" font-size="9.00" fill="#000000">category: String</text>
<polygon fill="none" stroke="#000000" points="0,-120 0,-140 94,-140 94,-120 0,-120"/>
<text text-anchor="start" x="5" y="-126.9" font-family="Times,serif" font-size="9.00" fill="#000000">isAvailabe: Boolean</text>
<polygon fill="none" stroke="#000000" points="0,-100 0,-120 94,-120 94,-100 0,-100"/>
<text text-anchor="start" x="5" y="-106.9" font-family="Times,serif" font-size="9.00" fill="#000000">_id: ObjectID</text>
<polygon fill="none" stroke="#000000" points="0,-80 0,-100 94,-100 94,-80 0,-80"/>
<text text-anchor="start" x="5" y="-86.9" font-family="Times,serif" font-size="9.00" fill="#000000">updatedAt: Date</text>
<polygon fill="none" stroke="#000000" points="0,-60 0,-80 94,-80 94,-60 0,-60"/>
<text text-anchor="start" x="5" y="-66.9" font-family="Times,serif" font-size="9.00" fill="#000000">createdAt: Date</text>
<polygon fill="none" stroke="#000000" points="0,-40 0,-60 94,-60 94,-40 0,-40"/>
<text text-anchor="start" x="5" y="-46.9" font-family="Times,serif" font-size="9.00" fill="#000000">__v: Number</text>
</g>
<!-- shareableitems -->
<g id="node7" class="node">
<title>shareableitems</title>
<polygon fill="#4477c9" stroke="transparent" points="319.5864,0 319.5864,-258 413.5864,-258 413.5864,0 319.5864,0"/>
<polygon fill="#add8e6" stroke="transparent" points="319.5864,-240 319.5864,-258 413.5864,-258 413.5864,-240 319.5864,-240"/>
<polygon fill="none" stroke="#000000" points="319.5864,-240 319.5864,-258 413.5864,-258 413.5864,-240 319.5864,-240"/>
<text text-anchor="start" x="337.5983" y="-246.9" font-family="Times,serif" font-weight="bold" font-style="italic" font-size="9.00" fill="#000000"> shareableitems </text>
<polygon fill="none" stroke="#000000" points="319.5864,-220 319.5864,-240 413.5864,-240 413.5864,-220 319.5864,-220"/>
<text text-anchor="start" x="324.5864" y="-226.9" font-family="Times,serif" font-size="9.00" fill="#000000">itemType: String</text>
<polygon fill="none" stroke="#000000" points="319.5864,-200 319.5864,-220 413.5864,-220 413.5864,-200 319.5864,-200"/>
<text text-anchor="start" x="324.2176" y="-206.9" font-family="Times,serif" font-size="9.00" fill="#000000">itemDescription: String</text>
<polygon fill="none" stroke="#000000" points="319.5864,-180 319.5864,-200 413.5864,-200 413.5864,-180 319.5864,-180"/>
<text text-anchor="start" x="324.5864" y="-186.9" font-family="Times,serif" font-size="9.00" fill="#000000">isAvailable: Boolean</text>
<polygon fill="none" stroke="#000000" points="319.5864,-160 319.5864,-180 413.5864,-180 413.5864,-160 319.5864,-160"/>
<text text-anchor="start" x="324.5864" y="-166.9" font-family="Times,serif" font-size="9.00" fill="#000000">isDeleted: Boolean</text>
<polygon fill="none" stroke="#000000" points="319.5864,-140 319.5864,-160 413.5864,-160 413.5864,-140 319.5864,-140"/>
<text text-anchor="start" x="324.5864" y="-146.9" font-family="Times,serif" font-size="9.00" fill="#000000">isPrivate: Boolean</text>
<polygon fill="none" stroke="#000000" points="319.5864,-120 319.5864,-140 413.5864,-140 413.5864,-120 319.5864,-120"/>
<text text-anchor="start" x="324.5864" y="-126.9" font-family="Times,serif" font-size="9.00" fill="#000000">user: ObjectID</text>
<polygon fill="none" stroke="#000000" points="319.5864,-100 319.5864,-120 413.5864,-120 413.5864,-100 319.5864,-100"/>
<text text-anchor="start" x="324.5864" y="-106.9" font-family="Times,serif" font-size="9.00" fill="#000000">location: ObjectID</text>
<polygon fill="none" stroke="#000000" points="319.5864,-80 319.5864,-100 413.5864,-100 413.5864,-80 319.5864,-80"/>
<text text-anchor="start" x="324.5864" y="-86.9" font-family="Times,serif" font-size="9.00" fill="#000000">pictures: Array</text>
<polygon fill="none" stroke="#000000" points="319.5864,-60 319.5864,-80 413.5864,-80 413.5864,-60 319.5864,-60"/>
<text text-anchor="start" x="324.5864" y="-66.9" font-family="Times,serif" font-size="9.00" fill="#000000">_id: ObjectID</text>
<polygon fill="none" stroke="#000000" points="319.5864,-40 319.5864,-60 413.5864,-60 413.5864,-40 319.5864,-40"/>
<text text-anchor="start" x="324.5864" y="-46.9" font-family="Times,serif" font-size="9.00" fill="#000000">updatedAt: Date</text>
<polygon fill="none" stroke="#000000" points="319.5864,-20 319.5864,-40 413.5864,-40 413.5864,-20 319.5864,-20"/>
<text text-anchor="start" x="324.5864" y="-26.9" font-family="Times,serif" font-size="9.00" fill="#000000">createdAt: Date</text>
<polygon fill="none" stroke="#000000" points="319.5864,0 319.5864,-20 413.5864,-20 413.5864,0 319.5864,0"/>
<text text-anchor="start" x="324.5864" y="-6.9" font-family="Times,serif" font-size="9.00" fill="#000000">__v: Number</text>
</g>
<!-- locations&#45;&gt;shareableitems -->
<g id="edge14" class="edge">
<title>locations:6&#45;&gt;shareableitems:6</title>
<path fill="none" stroke="#000000" stroke-dasharray="5,2" d="M94,-110C194.2606,-110 219.3258,-110 319.5864,-110"/>
<text text-anchor="middle" x="204.6354" y="-115.2" font-family="Times,serif" font-size="14.00" fill="#000000">locations&#45;shareableitems</text>
<text text-anchor="middle" x="314.5331" y="-97.4" font-family="Times,serif" font-size="14.00" fill="#000000">N</text>
<text text-anchor="middle" x="97.5" y="-97.4" font-family="Times,serif" font-size="14.00" fill="#000000">1</text>
</g>
<!-- passwordresettokens -->
<g id="node5" class="node">
<title>passwordresettokens</title>
<polygon fill="#4477c9" stroke="transparent" points="323.5864,-330 323.5864,-468 409.5864,-468 409.5864,-330 323.5864,-330"/>
<polygon fill="#add8e6" stroke="transparent" points="323.5864,-450 323.5864,-468 409.5864,-468 409.5864,-450 323.5864,-450"/>
<polygon fill="none" stroke="#000000" points="323.5864,-450 323.5864,-468 409.5864,-468 409.5864,-450 323.5864,-450"/>
<text text-anchor="start" x="327.1003" y="-456.9" font-family="Times,serif" font-weight="bold" font-style="italic" font-size="9.00" fill="#000000"> passwordresettokens </text>
<polygon fill="none" stroke="#000000" points="323.5864,-430 323.5864,-450 409.5864,-450 409.5864,-430 323.5864,-430"/>
<text text-anchor="start" x="328.5864" y="-436.9" font-family="Times,serif" font-size="9.00" fill="#000000">resetToken: String</text>
<polygon fill="none" stroke="#000000" points="323.5864,-410 323.5864,-430 409.5864,-430 409.5864,-410 323.5864,-410"/>
<text text-anchor="start" x="328.5864" y="-416.9" font-family="Times,serif" font-size="9.00" fill="#000000">userId: ObjectID</text>
<polygon fill="none" stroke="#000000" points="323.5864,-390 323.5864,-410 409.5864,-410 409.5864,-390 323.5864,-390"/>
<text text-anchor="start" x="328.5864" y="-396.9" font-family="Times,serif" font-size="9.00" fill="#000000">userEmail: String</text>
<polygon fill="none" stroke="#000000" points="323.5864,-370 323.5864,-390 409.5864,-390 409.5864,-370 323.5864,-370"/>
<text text-anchor="start" x="328.5864" y="-376.9" font-family="Times,serif" font-size="9.00" fill="#000000">expires: Date</text>
<polygon fill="none" stroke="#000000" points="323.5864,-350 323.5864,-370 409.5864,-370 409.5864,-350 323.5864,-350"/>
<text text-anchor="start" x="328.5864" y="-356.9" font-family="Times,serif" font-size="9.00" fill="#000000">_id: ObjectID</text>
<polygon fill="none" stroke="#000000" points="323.5864,-330 323.5864,-350 409.5864,-350 409.5864,-330 323.5864,-330"/>
<text text-anchor="start" x="328.5864" y="-336.9" font-family="Times,serif" font-size="9.00" fill="#000000">__v: Number</text>
</g>
<!-- refreshtokens -->
<g id="node6" class="node">
<title>refreshtokens</title>
<polygon fill="#4477c9" stroke="transparent" points="330.0864,-847 330.0864,-985 403.0864,-985 403.0864,-847 330.0864,-847"/>
<polygon fill="#add8e6" stroke="transparent" points="330.5864,-967 330.5864,-985 403.5864,-985 403.5864,-967 330.5864,-967"/>
<polygon fill="none" stroke="#000000" points="330.5864,-967 330.5864,-985 403.5864,-985 403.5864,-967 330.5864,-967"/>
<text text-anchor="start" x="340.599" y="-973.9" font-family="Times,serif" font-weight="bold" font-style="italic" font-size="9.00" fill="#000000"> refreshtokens </text>
<polygon fill="none" stroke="#000000" points="330.5864,-947 330.5864,-967 403.5864,-967 403.5864,-947 330.5864,-947"/>
<text text-anchor="start" x="335.5864" y="-953.9" font-family="Times,serif" font-size="9.00" fill="#000000">token: String</text>
<polygon fill="none" stroke="#000000" points="330.5864,-927 330.5864,-947 403.5864,-947 403.5864,-927 330.5864,-927"/>
<text text-anchor="start" x="335.5864" y="-933.9" font-family="Times,serif" font-size="9.00" fill="#000000">userId: ObjectID</text>
<polygon fill="none" stroke="#000000" points="330.5864,-907 330.5864,-927 403.5864,-927 403.5864,-907 330.5864,-907"/>
<text text-anchor="start" x="335.4663" y="-913.9" font-family="Times,serif" font-size="9.00" fill="#000000">userEmail: String</text>
<polygon fill="none" stroke="#000000" points="330.5864,-887 330.5864,-907 403.5864,-907 403.5864,-887 330.5864,-887"/>
<text text-anchor="start" x="335.5864" y="-893.9" font-family="Times,serif" font-size="9.00" fill="#000000">expires: Date</text>
<polygon fill="none" stroke="#000000" points="330.5864,-867 330.5864,-887 403.5864,-887 403.5864,-867 330.5864,-867"/>
<text text-anchor="start" x="335.5864" y="-873.9" font-family="Times,serif" font-size="9.00" fill="#000000">_id: ObjectID</text>
<polygon fill="none" stroke="#000000" points="330.5864,-847 330.5864,-867 403.5864,-867 403.5864,-847 330.5864,-847"/>
<text text-anchor="start" x="335.5864" y="-853.9" font-family="Times,serif" font-size="9.00" fill="#000000">__v: Number</text>
</g>
<!-- users -->
<g id="node8" class="node">
<title>users</title>
<polygon fill="#4477c9" stroke="transparent" points="5.5,-802 5.5,-1040 88.5,-1040 88.5,-802 5.5,-802"/>
<polygon fill="#add8e6" stroke="transparent" points="6,-1022 6,-1040 89,-1040 89,-1022 6,-1022"/>
<polygon fill="none" stroke="#000000" points="6,-1022 6,-1040 89,-1040 89,-1022 6,-1022"/>
<text text-anchor="start" x="36.0043" y="-1028.9" font-family="Times,serif" font-weight="bold" font-style="italic" font-size="9.00" fill="#000000"> users </text>
<polygon fill="none" stroke="#000000" points="6,-1002 6,-1022 89,-1022 89,-1002 6,-1002"/>
<text text-anchor="start" x="11" y="-1008.9" font-family="Times,serif" font-size="9.00" fill="#000000">email: String</text>
<polygon fill="none" stroke="#000000" points="6,-982 6,-1002 89,-1002 89,-982 6,-982"/>
<text text-anchor="start" x="11" y="-988.9" font-family="Times,serif" font-size="9.00" fill="#000000">phone: String</text>
<polygon fill="none" stroke="#000000" points="6,-962 6,-982 89,-982 89,-962 6,-962"/>
<text text-anchor="start" x="11" y="-968.9" font-family="Times,serif" font-size="9.00" fill="#000000">password: String</text>
<polygon fill="none" stroke="#000000" points="6,-942 6,-962 89,-962 89,-942 6,-942"/>
<text text-anchor="start" x="11" y="-948.9" font-family="Times,serif" font-size="9.00" fill="#000000">name: String</text>
<polygon fill="none" stroke="#000000" points="6,-922 6,-942 89,-942 89,-922 6,-922"/>
<text text-anchor="start" x="11" y="-928.9" font-family="Times,serif" font-size="9.00" fill="#000000">role: String</text>
<polygon fill="none" stroke="#000000" points="6,-902 6,-922 89,-922 89,-902 6,-902"/>
<text text-anchor="start" x="10.6405" y="-908.9" font-family="Times,serif" font-size="9.00" fill="#000000">bankAccount: Array</text>
<polygon fill="none" stroke="#000000" points="6,-882 6,-902 89,-902 89,-882 6,-882"/>
<text text-anchor="start" x="11" y="-888.9" font-family="Times,serif" font-size="9.00" fill="#000000">picture: String</text>
<polygon fill="none" stroke="#000000" points="6,-862 6,-882 89,-882 89,-862 6,-862"/>
<text text-anchor="start" x="11" y="-868.9" font-family="Times,serif" font-size="9.00" fill="#000000">_id: ObjectID</text>
<polygon fill="none" stroke="#000000" points="6,-842 6,-862 89,-862 89,-842 6,-842"/>
<text text-anchor="start" x="11" y="-848.9" font-family="Times,serif" font-size="9.00" fill="#000000">updatedAt: Date</text>
<polygon fill="none" stroke="#000000" points="6,-822 6,-842 89,-842 89,-822 6,-822"/>
<text text-anchor="start" x="11" y="-828.9" font-family="Times,serif" font-size="9.00" fill="#000000">createdAt: Date</text>
<polygon fill="none" stroke="#000000" points="6,-802 6,-822 89,-822 89,-802 6,-802"/>
<text text-anchor="start" x="11" y="-808.9" font-family="Times,serif" font-size="9.00" fill="#000000">__v: Number</text>
</g>
<!-- users&#45;&gt;bankaccountdetails -->
<g id="edge1" class="edge">
<title>users:7&#45;&gt;bankaccountdetails:3</title>
<path fill="none" stroke="#000000" stroke-dasharray="5,2" d="M89,-872C135.804,-872 103.4018,-930.4883 130,-969 195.1317,-1063.3046 201.9762,-1147 316.5864,-1147"/>
<text text-anchor="middle" x="204.6354" y="-1146.2" font-family="Times,serif" font-size="14.00" fill="#000000">users&#45;bankaccountdetails</text>
<text text-anchor="middle" x="311.5331" y="-1151.2" font-family="Times,serif" font-size="14.00" fill="#000000">N</text>
<text text-anchor="middle" x="92.5" y="-859.4" font-family="Times,serif" font-size="14.00" fill="#000000">1</text>
</g>
<!-- users&#45;&gt;charitypools -->
<g id="edge2" class="edge">
<title>users:7&#45;&gt;charitypools:5</title>
<path fill="none" stroke="#000000" stroke-dasharray="5,2" d="M89,-872C151.6104,-872 84.1454,-1391.3688 130,-1434 294.3992,-1586.8426 451.7353,-1563.5329 635.0634,-1434 674.7284,-1405.9741 622.9963,-1331 671.5634,-1331"/>
<text text-anchor="middle" x="366.5864" y="-1544.2" font-family="Times,serif" font-size="14.00" fill="#000000">users&#45;charitypools</text>
<text text-anchor="middle" x="666.5101" y="-1335.2" font-family="Times,serif" font-size="14.00" fill="#000000">N</text>
<text text-anchor="middle" x="92.5" y="-876.2" font-family="Times,serif" font-size="14.00" fill="#000000">1</text>
</g>
<!-- users&#45;&gt;charitypools -->
<g id="edge3" class="edge">
<title>users:7&#45;&gt;charitypools:6</title>
<path fill="none" stroke="#000000" stroke-dasharray="5,2" d="M89,-872C157.3874,-872 90.4066,-1121.2398 130,-1177 221.0022,-1305.1603 298.897,-1292.9247 453.902,-1319 533.3026,-1332.3569 555.0153,-1327.6695 635.0634,-1319 651.5742,-1317.2118 654.9561,-1311 671.5634,-1311"/>
<text text-anchor="middle" x="366.5864" y="-1316.2" font-family="Times,serif" font-size="14.00" fill="#000000">users&#45;charitypools</text>
<text text-anchor="middle" x="666.5101" y="-1315.2" font-family="Times,serif" font-size="14.00" fill="#000000">N</text>
<text text-anchor="middle" x="85.5" y="-876.2" font-family="Times,serif" font-size="14.00" fill="#000000">1</text>
</g>
<!-- users&#45;&gt;charitypools -->
<g id="edge4" class="edge">
<title>users:7&#45;&gt;charitypools:8</title>
<path fill="none" stroke="#000000" stroke-dasharray="5,2" d="M89,-872C113.8452,-872 107.957,-845.4625 130,-834 244.6045,-774.4051 303.7982,-733.6519 417.902,-794.2 569.9897,-874.9039 566.0452,-957.2652 635.0634,-1115 663.6072,-1180.2344 600.3576,-1271 671.5634,-1271"/>
<text text-anchor="middle" x="366.5864" y="-798.2" font-family="Times,serif" font-size="14.00" fill="#000000">users&#45;charitypools</text>
<text text-anchor="middle" x="666.5101" y="-1275.2" font-family="Times,serif" font-size="14.00" fill="#000000">N</text>
<text text-anchor="middle" x="92.5" y="-876.2" font-family="Times,serif" font-size="14.00" fill="#000000">1</text>
</g>
<!-- users&#45;&gt;donations -->
<g id="edge6" class="edge">
<title>users:7&#45;&gt;donations:6</title>
<path fill="none" stroke="#000000" stroke-dasharray="5,2" d="M89,-872C162.6965,-872 82.1058,-1477.9882 130,-1534 315.7936,-1751.2841 535.9377,-1656.1716 772.0634,-1495 832.9428,-1453.4457 899.1613,-1231 972.8706,-1231"/>
<text text-anchor="middle" x="544.4827" y="-1655.2" font-family="Times,serif" font-size="14.00" fill="#000000">users&#45;donations</text>
<text text-anchor="middle" x="967.8173" y="-1235.2" font-family="Times,serif" font-size="14.00" fill="#000000">N</text>
<text text-anchor="middle" x="85.5" y="-859.4" font-family="Times,serif" font-size="14.00" fill="#000000">1</text>
</g>
<!-- users&#45;&gt;donations -->
<g id="edge7" class="edge">
<title>users:7&#45;&gt;donations:8</title>
<path fill="none" stroke="#000000" stroke-dasharray="5,2" d="M89,-872C146.2023,-872 83.9171,-783.8891 130,-750 311.1609,-616.7753 439.8468,-668.582 635.0634,-780.2 840.2692,-897.5295 736.4903,-1191 972.8706,-1191"/>
<text text-anchor="middle" x="544.4827" y="-784.2" font-family="Times,serif" font-size="14.00" fill="#000000">users&#45;donations</text>
<text text-anchor="middle" x="967.8173" y="-1195.2" font-family="Times,serif" font-size="14.00" fill="#000000">N</text>
<text text-anchor="middle" x="92.5" y="-859.4" font-family="Times,serif" font-size="14.00" fill="#000000">1</text>
</g>
<!-- users&#45;&gt;passwordresettokens -->
<g id="edge9" class="edge">
<title>users:7&#45;&gt;passwordresettokens:1</title>
<path fill="none" stroke="#000000" stroke-dasharray="5,2" d="M89,-872C171.0187,-872 81.4306,-571.2915 130,-505.2 136.9582,-495.7315 311.8361,-420 323.5864,-420"/>
<text text-anchor="middle" x="204.6354" y="-509.2" font-family="Times,serif" font-size="14.00" fill="#000000">users&#45;passwordresettokens</text>
<text text-anchor="middle" x="318.5331" y="-407.4" font-family="Times,serif" font-size="14.00" fill="#000000">N</text>
<text text-anchor="middle" x="85.5" y="-876.2" font-family="Times,serif" font-size="14.00" fill="#000000">1</text>
</g>
<!-- users&#45;&gt;passwordresettokens -->
<g id="edge10" class="edge">
<title>users:7&#45;&gt;passwordresettokens:2</title>
<path fill="none" stroke="#000000" stroke-dasharray="5,2" d="M89,-872C194.0182,-872 52.807,-472.4043 130,-401.2 193.2433,-342.8632 237.5463,-400 323.5864,-400"/>
<text text-anchor="middle" x="204.6354" y="-405.2" font-family="Times,serif" font-size="14.00" fill="#000000">users&#45;passwordresettokens</text>
<text text-anchor="middle" x="318.5331" y="-387.4" font-family="Times,serif" font-size="14.00" fill="#000000">N</text>
<text text-anchor="middle" x="92.5" y="-876.2" font-family="Times,serif" font-size="14.00" fill="#000000">1</text>
</g>
<!-- users&#45;&gt;refreshtokens -->
<g id="edge11" class="edge">
<title>users:7&#45;&gt;refreshtokens:1</title>
<path fill="none" stroke="#000000" stroke-dasharray="5,2" d="M89,-872C108.901,-872 111.1214,-883.7035 130,-890 216.8603,-918.9703 239.0223,-937 330.5864,-937"/>
<text text-anchor="middle" x="204.6354" y="-938.2" font-family="Times,serif" font-size="14.00" fill="#000000">users&#45;refreshtokens</text>
<text text-anchor="middle" x="325.5331" y="-941.2" font-family="Times,serif" font-size="14.00" fill="#000000">N</text>
<text text-anchor="middle" x="85.5" y="-859.4" font-family="Times,serif" font-size="14.00" fill="#000000">1</text>
</g>
<!-- users&#45;&gt;refreshtokens -->
<g id="edge12" class="edge">
<title>users:7&#45;&gt;refreshtokens:2</title>
<path fill="none" stroke="#000000" stroke-dasharray="5,2" d="M89,-872C107.4711,-872 111.5912,-866.7162 130,-865.2 196.1187,-859.7542 218.0381,-839.6679 279.2708,-865.2 309.1813,-877.6717 298.1799,-917 330.5864,-917"/>
<text text-anchor="middle" x="204.6354" y="-869.2" font-family="Times,serif" font-size="14.00" fill="#000000">users&#45;refreshtokens</text>
<text text-anchor="middle" x="325.5331" y="-921.2" font-family="Times,serif" font-size="14.00" fill="#000000">N</text>
<text text-anchor="middle" x="92.5" y="-859.4" font-family="Times,serif" font-size="14.00" fill="#000000">1</text>
</g>
<!-- users&#45;&gt;shareableitems -->
<g id="edge13" class="edge">
<title>users:7&#45;&gt;shareableitems:5</title>
<path fill="none" stroke="#000000" stroke-dasharray="5,2" d="M89,-872C148.375,-872 106.5218,-393.7359 130,-339.2 142.4042,-310.3871 288.2169,-130 319.5864,-130"/>
<text text-anchor="middle" x="204.6354" y="-343.2" font-family="Times,serif" font-size="14.00" fill="#000000">users&#45;shareableitems</text>
<text text-anchor="middle" x="314.5331" y="-117.4" font-family="Times,serif" font-size="14.00" fill="#000000">N</text>
<text text-anchor="middle" x="85.5" y="-876.2" font-family="Times,serif" font-size="14.00" fill="#000000">1</text>
</g>
</g>
</svg>
